<svg xmlns="http://www.w3.org/2000/svg" viewBox="0 0 1024 1024" fill="none">
  <rect width="1024" height="1024" rx="224" fill="#000000"/>
  <g transform="translate(512 512) scale(1.72) translate(-256 -256)">
    <circle cx="168" cy="188" r="5.5" fill="#B8B8B8"/>
    <circle cx="148" cy="248" r="7" fill="#B8B8B8"/>
    <circle cx="198" cy="152" r="4" fill="#B8B8B8"/>
    <circle cx="248" cy="132" r="3.5" fill="#B8B8B8"/>
    <circle cx="372" cy="168" r="4.5" fill="#B8B8B8"/>
    <circle cx="392" cy="332" r="5" fill="#B8B8B8"/>
    <path d="M 356 118 C 430 132, 452 214, 418 292" stroke="#1B833E" stroke-width="15" stroke-linecap="round"/>
    <path d="M 156 356 C 188 412, 252 430, 312 404" stroke="#1B833E" stroke-width="15" stroke-linecap="round"/>
    <path d="M 188 214 C 214 198, 244 192, 272 198 C 298 204, 322 220, 344 214" stroke="#FFFFFF" stroke-width="3.2" stroke-linecap="round"/>
    <path d="M 176 226 C 206 210, 248 206, 286 214 C 314 220, 334 232, 352 226" stroke="#FFFFFF" stroke-width="3.2" stroke-linecap="round"/>
    <path d="M 184 238 C 218 224, 256 222, 292 230 C 318 236, 338 246, 356 240" stroke="#FFFFFF" stroke-width="3.2" stroke-linecap="round"/>
    <path d="M 198 250 C 228 242, 262 244, 296 252" stroke="#FFFFFF" stroke-width="3.2" stroke-linecap="round"/>
    <path d="M 162 258 H 350 C 362 258, 368 264, 368 274 V 286 C 368 296, 362 302, 350 302 H 162 C 150 302, 144 296, 144 286 V 274 C 144 264, 150 258, 162 258 Z" stroke="#FFFFFF" stroke-width="3.4" stroke-linejoin="round"/>
    <path d="M 152 302 H 360 C 372 302, 378 310, 378 322 V 388 C 378 404, 366 416, 350 416 H 162 C 146 416, 134 404, 134 388 V 322 C 134 310, 140 302, 152 302 Z" stroke="#FFFFFF" stroke-width="3.4" stroke-linejoin="round"/>
    <ellipse cx="188" cy="348" rx="10" ry="16" stroke="#FFFFFF" stroke-width="3"/>
    <ellipse cx="222" cy="348" rx="10" ry="16" stroke="#FFFFFF" stroke-width="3"/>
    <ellipse cx="256" cy="348" rx="10" ry="16" stroke="#FFFFFF" stroke-width="3"/>
    <ellipse cx="290" cy="348" rx="10" ry="16" stroke="#FFFFFF" stroke-width="3"/>
    <ellipse cx="324" cy="348" rx="10" ry="16" stroke="#FFFFFF" stroke-width="3"/>
    <ellipse cx="188" cy="382" rx="10" ry="16" stroke="#FFFFFF" stroke-width="3"/>
    <ellipse cx="222" cy="382" rx="10" ry="16" stroke="#FFFFFF" stroke-width="3"/>
    <ellipse cx="256" cy="382" rx="10" ry="16" stroke="#FFFFFF" stroke-width="3"/>
    <ellipse cx="290" cy="382" rx="10" ry="16" stroke="#FFFFFF" stroke-width="3"/>
    <ellipse cx="324" cy="382" rx="10" ry="16" stroke="#FFFFFF" stroke-width="3"/>
  </g>
</svg>
