<svg xmlns="http://www.w3.org/2000/svg" viewBox="0 0 220 220" fill="none">
  <rect x="48" y="36" width="124" height="158" rx="14" fill="#ffffff" stroke="#242C34" stroke-width="2.6"/>
  <line x1="58" y1="68" x2="162" y2="68" stroke="#242C34" stroke-width="2.6" stroke-linecap="round"/>
  <rect x="64" y="46" width="34" height="16" rx="8" fill="#ffffff" stroke="#242C34" stroke-width="2.6"/>
  <circle cx="98" cy="54" r="11" fill="#ffffff" stroke="#242C34" stroke-width="2.6"/>
  <rect x="82" y="51" width="10" height="3" rx="1.5" fill="#05944f"/>
  <line x1="138" y1="49" x2="154" y2="49" stroke="#242C34" stroke-width="2.6" stroke-linecap="round"/>
  <line x1="138" y1="54" x2="154" y2="54" stroke="#242C34" stroke-width="2.6" stroke-linecap="round"/>
  <line x1="138" y1="59" x2="154" y2="59" stroke="#242C34" stroke-width="2.6" stroke-linecap="round"/>
  <circle cx="110" cy="162" r="51" fill="#ffffff" stroke="#242C34" stroke-width="2.6"/>
  <circle cx="110" cy="162" r="46" fill="#ffffff" stroke="#242C34" stroke-width="2.6"/>
  <g transform="translate(64 116)">
    <path d="M46 46 C46 28 62 24 68 38 C74 52 58 62 46 46Z" stroke="#242C34" stroke-width="2.6" stroke-linecap="round" fill="none"/>
    <path d="M46 46 C54 62 72 58 74 44 C76 30 58 28 46 46Z" stroke="#05944f" stroke-width="2.6" stroke-linecap="round" fill="none"/>
    <path d="M46 46 C28 50 24 66 38 72 C52 78 62 58 46 46Z" stroke="#05944f" stroke-width="2.6" stroke-linecap="round" fill="none"/>
    <path d="M46 46 C30 38 38 22 54 24 C70 26 66 42 46 46Z" stroke="#242C34" stroke-width="2.6" stroke-linecap="round" fill="none"/>
    <path d="M46 46 C62 38 78 46 76 60 C74 74 54 68 46 46Z" stroke="#05944f" stroke-width="2.6" stroke-linecap="round" fill="none"/>
    <path d="M46 46 C58 30 74 34 72 50 C70 66 50 64 46 46Z" stroke="#242C34" stroke-width="2.6" stroke-linecap="round" fill="none"/>
  </g>
  <rect x="134" y="168" width="24" height="16" rx="4" fill="#ffffff" stroke="#242C34" stroke-width="2.6"/>
  <rect x="62" y="194" width="16" height="7" rx="2" fill="#242C34"/>
  <rect x="142" y="194" width="16" height="7" rx="2" fill="#242C34"/>
</svg>
